<?xml version="1.0" encoding="utf-8"?>
<!-- Generator: Adobe Illustrator 19.2.1, SVG Export Plug-In . SVG Version: 6.00 Build 0)  -->
<svg version="1.1" id="Layer_1" xmlns="http://www.w3.org/2000/svg" xmlns:xlink="http://www.w3.org/1999/xlink" x="0px" y="0px"
	 viewBox="0 0 127.3 127.3" style="enable-background:new 0 0 127.3 127.3;" xml:space="preserve">
<style type="text/css">
	.st0{fill:#FFFFFF;}
</style>
<path class="st0" d="M125.4,9.9c-3,6.4-21.2,34.6-28.2,40.1c-2.2,1.8-5.3,3.8-8.5,5.6c-2.4,1.7-7.5,3.4-11.2,6
	c-0.1-0.4-0.1-0.7-0.2-1.1c-0.5,0.1-1,0.2-1.4,0.3c1,3.9-0.1,8.3-3.1,11.3c-3.2,3.2-7.8,4.2-11.9,3C60.4,81,54.5,91.6,50,97.2
	c-5.5,7-33.8,25.1-40.1,28.2c-3.4,1.6-6.7,3-8.8,0.9c-2.1-2.1-0.8-5.4,0.9-8.8c3-6.4,21.2-34.6,28.2-40.1
	c4.7-3.7,12.8-8.5,18.8-10.2c0.6-0.3,1.2-0.7,1.8-1.1c0,0.2,0.1,0.4,0.1,0.6c0.7-0.1,1.3-0.2,1.9-0.2c-0.9-3.9,0.1-8.2,3.2-11.2
	c2.9-2.9,6.8-4,10.6-3.3c0.1-0.5,0.2-1,0.3-1.6c-0.6-0.1-1.3-0.2-2-0.3c0-5,0-11.8,0-13.9c2.3,0.1,1.6,6.8,2.4,12.5
	c1.8-6,6.5-13.9,10.2-18.5c5.5-7,33.8-25.1,40.1-28.2c3.4-1.6,6.7-3,8.8-0.9C128.4,3.2,127,6.5,125.4,9.9z M57.1,52
	c-1.4-0.9-2.8-2.1-4.2-3.3c-2.9-2.6-5.4-5.2-7-5.2c-0.3,0-0.5,0.1-0.8,0.3c1.5,1.5,6.2,6.2,9.7,9.7C55.6,53,56.3,52.5,57.1,52z
	 M36.8,63.2c2.1,0,8.8,0,13.7,0c0-0.9,0.1-1.8,0.3-2.7C44.8,61.9,36.9,60.7,36.8,63.2z M62.2,50.2c-0.9-1.2-1.6-2.7-2.3-4.1
	c-2-4.1-3.5-8.2-5.2-8.2c-0.1,0-0.3,0-0.4,0.1c0.8,2,3.4,8.2,5.3,12.8C60.4,50.5,61.2,50.3,62.2,50.2z M94,56c0.6,2.5,1,5,1,7.7
	c0,17-13.8,30.8-30.8,30.8c-2.7,0-5.4-0.4-7.9-1c-0.7,1.1-1.4,2.2-2,3c3.1,0.9,6.4,1.5,9.9,1.5c18.9,0,34.3-15.3,34.3-34.3
	c0-3.4-0.5-6.7-1.4-9.7C96.1,54.6,95,55.3,94,56z M53.1,55.7c-1.9-0.4-3.9-1-5.8-1.7c-2.8-1-5.3-2-6.8-2c-0.7,0-1.2,0.2-1.4,0.7
	c1.9,0.8,8.1,3.4,12.7,5.3C52.1,57.2,52.6,56.4,53.1,55.7z M34.2,70.9c-0.6-2.3-0.9-4.7-0.9-7.2c0-17,13.8-30.8,30.8-30.8
	c2.4,0,4.8,0.3,7.1,0.8c0.7-1.1,1.4-2.2,2-3.1c-2.9-0.8-6-1.2-9.1-1.2c-18.9,0-34.3,15.3-34.3,34.3c0,3.2,0.4,6.3,1.3,9.2
	C32.1,72.2,33.1,71.5,34.2,70.9z M66.5,77.1c0.9,1.3,1.7,2.7,2.4,4.1c2,4.1,3.5,8.2,5.2,8.2c0.1,0,0.3,0,0.4-0.1
	c-0.8-2-3.5-8.4-5.4-12.9C68.3,76.7,67.4,76.9,66.5,77.1z M71.4,75.2c1.5,1,3,2.2,4.4,3.4c2.9,2.6,5.4,5.2,7,5.2
	c0.3,0,0.6-0.1,0.8-0.3c-1.5-1.5-6.4-6.4-10-10C72.9,74.1,72.2,74.7,71.4,75.2z M75.2,71.6c2,0.3,4.2,1,6.2,1.7c2.8,1,5.3,2,6.8,2
	c0.7,0,1.2-0.2,1.4-0.7c-2-0.8-8.5-3.5-13.1-5.4C76.2,70.1,75.7,70.9,75.2,71.6z M91.9,64.1c-2.2,0-9.2,0-14.2,0
	c0,1-0.2,1.9-0.4,2.8C83.5,65.4,91.9,66.7,91.9,64.1z M63.9,77.3c-0.9,0-1.8-0.1-2.7-0.3c1.3,6.1,0.1,14.2,2.7,14.2
	C63.9,89.1,63.9,82.3,63.9,77.3z"/>
</svg>
