<?xml version="1.0" encoding="utf-8"?>
<!-- Generator: Adobe Illustrator 19.2.1, SVG Export Plug-In . SVG Version: 6.00 Build 0)  -->
<svg version="1.1" id="Layer_1" xmlns="http://www.w3.org/2000/svg" xmlns:xlink="http://www.w3.org/1999/xlink" x="0px" y="0px"
	 viewBox="0 0 753.8 325.8" style="enable-background:new 0 0 753.8 325.8;" xml:space="preserve">
<style type="text/css">
	.st0{fill-rule:evenodd;clip-rule:evenodd;fill:#F7F8F8;}
	.st1{fill:#FFFFFF;}
	.st2{fill-rule:evenodd;clip-rule:evenodd;fill:#FFFFFF;}
</style>
<g>
	<path class="st0" d="M710.5,143.2c-4.2,0-8.2,0.6-12,1.7c-1.8-4.4-4-8.6-6.5-12.6c-16.1,26.1-45.1,43.6-78.3,43.6
		c-23.4,0-44.7-8.7-60.9-23c-18,42.5-60.5,72.3-110,72.3c-49.4,0-91.8-29.6-109.9-71.8c-26,24.1-60.9,39-99.4,39
		c-18.4,0-36-3.4-52.2-9.6c-16.5,29.3-48.2,49.1-84.5,49.1c-36.1,0-67.6-19.5-84.2-48.4c-8,13.9-12.5,29.9-12.5,47
		c0,52.7,43.3,95.4,96.7,95.4c36.4,0,68-19.8,84.5-49.1c16.2,6.2,33.8,9.6,52.2,9.6c38.5,0,73.5-14.8,99.4-39
		c18.1,42.2,60.5,71.8,109.9,71.8c49.6,0,92.1-29.9,110-72.3c16.2,14.2,37.5,23,60.9,23c33.8,0,63.2-18,79.1-44.8
		c5.4,2.4,11.4,3.7,17.7,3.7c23.9,0,43.3-19.2,43.3-42.8S734.4,143.2,710.5,143.2z"/>
	<path class="st1" d="M96.7,231.8c36.4,0,68-19.8,84.5-49.1c16.2,6.2,33.8,9.6,52.2,9.6c38.5,0,73.5-14.8,99.4-39
		c18.1,42.2,60.5,71.8,109.9,71.8c49.6,0,92.1-29.9,110-72.3c16.2,14.2,37.5,23,60.9,23c33.2,0,62.2-17.5,78.3-43.6
		c-16.1-26.1-45.1-43.5-78.3-43.5c-32.1,0-60.3,16.3-76.7,40.9c-18.1-23.1-44.7-39.3-75.3-44.2c-1.8-41.1-36.1-74-78.2-74
		c-21.8,0-41.5,8.8-55.7,23C302.5,13,269.5,0,233.5,0C156,0,92.7,59.9,88.6,135.4c-32.7,2.7-60.7,21.3-76.1,48
		C29.2,212.3,60.6,231.8,96.7,231.8z"/>
</g>
</svg>
