<?xml version="1.0" encoding="utf-8"?>
<!-- Generator: Adobe Illustrator 19.2.1, SVG Export Plug-In . SVG Version: 6.00 Build 0)  -->
<svg version="1.1" id="Layer_1" xmlns="http://www.w3.org/2000/svg" xmlns:xlink="http://www.w3.org/1999/xlink" x="0px" y="0px"
	 viewBox="0 0 33.1 40.8" style="enable-background:new 0 0 33.1 40.8;" xml:space="preserve">
<style type="text/css">
	.st0{fill:#FFFFFF;}
</style>
<g>
	<path class="st0" d="M32.4,7.8C28.5,2.9,22.8,0,16.5,0h0h0c-6.2,0-12,2.9-15.8,7.8c-0.9,1.2-1,2.7,0.4,3.7c1.4,0.9,3.1-0.1,3.9-0.9
		c0.3-0.3,0.8-0.7,1.2-1c2.4-1.9,6.2-3.1,10.4-3.1s7.9,1.2,10.4,3.1c0.4,0.3,0.9,0.6,1.2,1c0.8,0.8,2.5,1.8,3.9,0.9
		C33.4,10.6,33.3,9.1,32.4,7.8z"/>
	<path class="st0" d="M20.7,27c-0.6-0.5-0.9-1.6-0.9-2c-0.2-2.3-0.7-9.7-0.2-15.5c-1-0.2-2-0.3-3-0.3c-1,0-2.1,0.1-3,0.3
		c0.5,5.8,0,13.2-0.2,15.5c0,0.4-0.3,1.5-0.9,2C10.3,28.4,9,30.8,9,33.3c0,4.1,3.3,7.5,7.4,7.5h0.1h0.1c4.1-0.1,7.4-3.4,7.4-7.5
		C24.1,30.8,22.8,28.4,20.7,27z"/>
</g>
</svg>
