<?xml version="1.0" encoding="utf-8"?>
<!-- Generator: Adobe Illustrator 19.2.1, SVG Export Plug-In . SVG Version: 6.00 Build 0)  -->
<svg version="1.1" id="Layer_1" xmlns="http://www.w3.org/2000/svg" xmlns:xlink="http://www.w3.org/1999/xlink" x="0px" y="0px"
	 viewBox="0 0 569.4 315" style="enable-background:new 0 0 569.4 315;" xml:space="preserve">
<style type="text/css">
	.st0{fill-rule:evenodd;clip-rule:evenodd;fill:#F7F8F8;}
	.st1{fill:#FFFFFF;}
	.st2{fill-rule:evenodd;clip-rule:evenodd;fill:#FFFFFF;}
</style>
<g>
	<path class="st0" d="M527,190.5c-15.3,44.5-59.7,74.1-108.2,68.8c-34.4-3.8-62.9-24.2-78.5-52.5c-10.3-1.9-20.2-5-29.5-9.2
		c-24.1,35.6-66.4,57-111.8,52c-26.8-2.9-50.6-14.6-68.8-31.9c-13,24.2-39.6,39.4-68.5,36.2c-25.7-2.8-46.5-19.4-56-41.7
		c-2.6,6.2-4.4,12.9-5.2,19.9c-4.2,38.2,23.2,72.6,61.2,76.8c28.8,3.2,55.5-12,68.5-36.2c18.2,17.3,42,29,68.8,31.9
		c45.5,5,87.8-16.4,111.8-52c9.3,4.2,19.1,7.3,29.5,9.2c15.6,28.2,44.1,48.7,78.5,52.5c48.5,5.3,92.9-24.3,108.2-68.8
		c22.2-7.5,39.2-27.4,41.9-52.4c1.3-12.2-0.9-24-6-34.3C555.7,173.8,542.7,185.2,527,190.5z"/>
	<path class="st2" d="M61.6,254c28.8,3.2,55.5-12,68.5-36.2c18.2,17.3,42,29,68.8,31.9c45.5,5,87.8-16.4,111.8-52
		c9.3,4.2,19.1,7.3,29.5,9.2c15.6,28.2,44.1,48.7,78.5,52.5c48.5,5.3,92.9-24.3,108.2-68.8c15.6-5.3,28.6-16.7,36-31.7
		c-9.1-18.5-27-32.1-48.9-34.5c-6.4-0.7-12.6-0.4-18.6,0.8C492.3,61.5,443.7,7.9,378.8,0.8c-55.3-6.1-106.3,23.3-130.7,70.1
		c-7.3-2.3-15-4-22.9-4.8c-65.5-7.2-124.5,40.4-131.7,106.3c-0.1,0.7-0.1,1.4-0.2,2.1c-5.2-1.9-10.7-3.2-16.4-3.9
		c-31-3.4-59.5,14.4-71.2,41.8C15.2,234.6,36,251.2,61.6,254z"/>
</g>
</svg>
