<?xml version="1.0" encoding="utf-8"?>
<!-- Generator: Adobe Illustrator 19.2.1, SVG Export Plug-In . SVG Version: 6.00 Build 0)  -->
<svg version="1.1" id="Layer_1" xmlns="http://www.w3.org/2000/svg" xmlns:xlink="http://www.w3.org/1999/xlink" x="0px" y="0px"
	 viewBox="0 0 605.7 321.5" style="enable-background:new 0 0 605.7 321.5;" xml:space="preserve">
<style type="text/css">
	.st0{fill-rule:evenodd;clip-rule:evenodd;fill:#F7F8F8;}
	.st1{fill:#FFFFFF;}
	.st2{fill-rule:evenodd;clip-rule:evenodd;fill:#FFFFFF;}
</style>
<g>
	<path class="st0" d="M578.8,186.7c-11.7,7.8-26.1,11.6-41.1,9.7c-13.7-1.7-25.6-7.9-34.8-16.8c-16.2,15.6-39,24-63.1,21
		c-26.8-3.4-48.7-20.1-59.6-42.7c-17.3,39.5-59.1,64.6-104.1,59c-31.9-4-58.4-22.6-73.6-48.2c-21.7,35.5-62.8,57-106.9,51.4
		c-37-4.6-67.2-27.2-83.3-57.8c-5.8,11.2-9.8,23.5-11.5,36.8c-7.5,59.7,34.9,114.2,94.8,121.7c44,5.5,85.2-15.9,106.9-51.4
		c15.2,25.6,41.7,44.2,73.6,48.2c45,5.6,86.8-19.5,104.1-59c11,22.6,32.8,39.4,59.6,42.7c24.1,3,46.9-5.4,63.1-21
		c9.1,8.9,21.1,15.1,34.8,16.8c33.2,4.2,63.4-19.3,67.6-52.4C608.2,221,597.2,199,578.8,186.7z"/>
	<path class="st1" d="M95.6,220c44,5.5,85.2-15.9,106.9-51.4c15.2,25.6,41.7,44.2,73.6,48.2c45,5.6,86.8-19.5,104.1-59
		c11,22.6,32.8,39.4,59.6,42.7c24.1,3,46.9-5.4,63.1-21c9.1,8.9,21.1,15.1,34.8,16.8c15,1.9,29.4-1.9,41.1-9.7
		c-7.6-5-16.4-8.5-26-9.7c-13.7-1.7-26.8,1.3-37.9,7.7c-9.3-15.1-23.8-26.9-41.4-32.7c1.5-3.7,2.6-7.6,3.1-11.8
		c3.3-26.4-15.4-50.5-41.9-53.8c-0.4-0.1-0.9-0.1-1.3-0.1c-1.6-43.2-34.3-80.1-78.7-85.7c-36.6-4.6-70.7,13.4-88.5,43.1
		c-10.7-9.9-24.5-16.7-40.1-18.6c-33.5-4.2-64.5,15.1-76.4,45c-23.7-1.6-45.1,12.7-53.2,34.1c-36.1,4.2-67.7,26.1-84.2,57.9
		C28.4,192.8,58.7,215.4,95.6,220z"/>
</g>
</svg>
